<?xml version="1.0" encoding="utf-8"?>
<!-- Generator: Adobe Illustrator 23.0.6, SVG Export Plug-In . SVG Version: 6.00 Build 0)  -->
<svg version="1.1" id="Calque_1" xmlns="http://www.w3.org/2000/svg" xmlns:xlink="http://www.w3.org/1999/xlink" x="0px" y="0px"
	 viewBox="0 0 100 100" style="enable-background:new 0 0 100 100;" xml:space="preserve">
<style type="text/css">
	.st0{fill:#009342;}
	.st1{fill:#8CBF45;}
</style>
<g>
	<path class="st0" d="M87.5,74c-0.1,0-0.1,0-0.2,0.1c-17.2,15.7-43.9,15.2-60.5-1.3C10.2,56.3,9.8,29.6,25.5,12.6c0,0,0,0,0,0
		c0.7-0.8,0.7-2-0.1-2.7c0,0,0,0,0,0l0,0l-6.1-6l0,0c-0.8-0.7-2-0.7-2.7,0c0,0,0,0-0.1,0C-4,25.7-3.5,60.2,18,81.6
		C39.4,103,74.1,103.5,96.1,83c0,0,0,0,0,0c0,0,0,0,0,0c0.8-0.8,0.8-2.1,0-2.8l-6-6C89.4,73.5,88.3,73.4,87.5,74z"/>
	<path class="st0" d="M86.9,19.7C85.1,21.5,68,31.9,68,31.9s10.4-17,12.3-18.9s4.8-1.8,6.7,0C88.7,14.9,88.7,17.8,86.9,19.7z"/>
	<path class="st0" d="M62.4,5.7c0,2.6-4.7,22-4.7,22S53,8.3,53,5.7S55.1,1,57.7,1S62.4,3.1,62.4,5.7z"/>
	<path class="st0" d="M94.3,46.8c-2.6,0-22.1-4.7-22.1-4.7s19.5-4.7,22.1-4.7c2.6,0,4.7,2.1,4.7,4.7C99,44.7,96.9,46.8,94.3,46.8z"
		/>
	<g>
		<g>
			<path class="st1" d="M61.1,51.6l0,22.5c0,0,0,1.2,0.8,2c0.4,0.4,1.1,0.6,1.9,0.5c3.9-0.3,11.1-3.2,14.1-5.8c0,0,0.9-0.9,1-1.9
				c0-0.6-0.3-1.2-0.8-1.7L62,51.2C61.8,51,61.1,51.1,61.1,51.6z"/>
		</g>
		<g>
			<path class="st1" d="M37.4,67.2c0,0-0.9,0.9-0.8,2c0,0.6,0.3,1.1,1,1.7c2.9,2.6,10.2,5.5,14.1,5.8c0,0,1.3,0.1,2-0.7
				c0.4-0.4,0.6-1,0.6-1.8l0-22.5c0-0.3-0.5-0.7-0.9-0.4L37.4,67.2z"/>
		</g>
		<g>
			<path class="st1" d="M23,36c0,0.1,0,1.3,0.7,2c0.4,0.4,1,0.6,1.8,0.6h22.6c0.3,0,0.7-0.5,0.4-0.9l0,0l-16-15.9c0,0-0.9-0.9-2-0.8
				c-0.6,0-1.2,0.3-1.7,1C26.2,24.9,23.2,32.1,23,36z"/>
		</g>
		<g>
			<path class="st1" d="M25.5,45.5c-0.1,0-1.3,0-2,0.8c-0.4,0.4-0.6,1-0.5,1.9c0.3,3.9,3.2,11.1,5.8,14c0,0,0.9,0.9,1.9,1
				c0.6,0,1.2-0.3,1.8-0.8l16-15.9c0.2-0.2,0.1-0.9-0.4-0.9L25.5,45.5z"/>
		</g>
	</g>
</g>
</svg>
